<?xml version="1.0" standalone="no"?><!DOCTYPE svg PUBLIC "-//W3C//DTD SVG 1.1//EN" "http://www.w3.org/Graphics/SVG/1.1/DTD/svg11.dtd"><svg t="1650166987743" class="icon" viewBox="0 0 1024 1024" version="1.1" xmlns="http://www.w3.org/2000/svg" p-id="1278" xmlns:xlink="http://www.w3.org/1999/xlink" width="16" height="16"><defs><style type="text/css"></style></defs><path d="M936.33238492 576.7916405m-46.53433574 0a46.53433573 46.53433573 0 1 0 93.06867147 0 46.53433573 46.53433573 0 1 0-93.06867147 0Z" fill="#F7554A" p-id="1279"></path><path d="M936.33238492 530.11922068c25.68363931 0 46.53433573 20.85069643 46.53433573 46.53433574s-20.85069643 46.53433573-46.53433573 46.53433574-46.53433573-20.85069643-46.53433574-46.53433574c-0.13808409-25.68363931 20.71261235-46.53433573 46.53433574-46.53433574m0-31.89742302c-43.35840185 0-78.56984283 35.21144098-78.56984284 78.56984284s35.21144098 78.56984283 78.56984284 78.56984282 78.56984283-35.21144098 78.56984283-78.56984282-35.34952507-78.56984283-78.56984283-78.56984284z" fill="#4C466D" p-id="1280"></path><path d="M535.33620992 216.94452202c-136.84132557 0-286.11021853 79.39834732-236.95228524 276.72050093 49.1579333 197.46023769 173.1574392 276.72050094 236.95228524 276.72050093s187.79435194-79.39834732 236.95228522-276.72050093c49.1579333-197.32215362-100.11095967-276.72050094-236.95228522-276.72050093z" fill="#49DAF2" p-id="1281"></path><path d="M535.33620992 216.94452202c136.84132557 0 286.11021853 79.39834732 236.95228522 276.72050093-49.1579333 197.46023769-173.1574392 276.72050094-236.95228522 276.72050093s-187.79435194-79.39834732-236.95228524-276.72050093c-49.1579333-197.32215362 100.11095967-276.72050094 236.95228524-276.72050093m0-32.03550711c-98.03969843 0-185.44692253 36.86844997-233.50018319 98.4539507-30.65466627 39.21587937-61.5855007 108.94834094-34.38293649 218.03476594 29.41190953 117.78572221 82.29811305 188.76094051 121.51399243 227.42448356 46.67241982 46.12008349 101.35371642 73.59881586 146.36912725 73.59881587s99.69670741-27.47873238 146.36912723-73.59881587c39.21587937-38.80162713 92.24016697-109.63876134 121.51399243-227.42448356 27.20256421-109.08642503-3.72827022-178.81888658-34.38293649-218.03476594-48.19134474-61.5855007-135.46048475-98.45395068-233.50018317-98.4539507z" fill="#4C466D" p-id="1282"></path><path d="M368.25447031 514.79188755c-9.11354943-35.34952507 0.8285045-65.03760276 20.16027603-74.28923629 19.33177153-9.25163351 48.60559698 1.38084082 70.56096605 30.65466628 30.5165822 40.73480429 19.46985561 109.91492951 1.24275675 118.75231077-18.08901478 8.69929718-79.26026325-25.8217234-91.96399883-75.11774076z" fill="#D7F7FF" p-id="1283"></path><path d="M403.32782723 437.18863328c17.67476253 0 38.80162713 11.59906291 55.64788516 33.96868426 30.5165822 40.73480429 19.46985561 109.91492951 1.24275675 118.75231077-1.93317715 0.96658859-4.28060655 1.38084082-7.0422882 1.38084083-23.47429398 0-73.59881586-32.31167525-84.92171063-76.36049752-9.11354943-35.34952507 0.8285045-65.03760276 20.16027603-74.28923627 4.55677472-2.3474294 9.52780169-3.45210207 14.91308089-3.45210207m0-31.89742301c-10.35630617 0-20.02219194 2.20934532-28.8595732 6.3518678-34.52102059 16.57008987-49.84835372 62.27592112-37.14461815 111.15768624 14.36074457 55.64788517 75.11774077 100.38712784 115.99062915 100.38712785 7.59462453 0 14.63691274-1.51892491 20.85069642-4.55677472 15.05116498-7.18037229 26.09789155-23.47429398 31.75933893-47.08667206 7.7327086-31.75933893 6.76612003-82.16002898-21.26494868-119.71889936-22.09345317-29.13574137-52.3338672-46.53433573-81.33152447-46.53433575z" fill="#4C466D" p-id="1284"></path><path d="M455.24744217 350.74799777m-18.22709886 0a18.22709886 18.22709886 0 1 0 36.45419772 0 18.22709886 18.22709886 0 1 0-36.45419772 0Z" fill="#D7F7FF" p-id="1285"></path><path d="M455.24744217 332.5208989c10.08013802 0 18.22709886 8.14696086 18.22709886 18.22709887s-8.14696086 18.22709886-18.22709886 18.22709886c-10.08013802 0-18.22709886-8.14696086-18.22709886-18.22709886s8.14696086-18.22709886 18.22709886-18.22709887m0-32.03550709c-27.75490053 0-50.26260596 22.50770542-50.26260596 50.26260596 0 27.75490053 22.50770542 50.26260596 50.26260596 50.26260594s50.26260596-22.50770542 50.26260597-50.26260594c0-27.75490053-22.50770542-50.26260596-50.26260597-50.26260596z" fill="#4C466D" p-id="1286"></path><path d="M614.87264132 350.74799777m-18.22709887 0a18.22709886 18.22709886 0 1 0 36.45419773 0 18.22709886 18.22709886 0 1 0-36.45419773 0Z" fill="#D7F7FF" p-id="1287"></path><path d="M614.87264132 332.5208989c10.08013802 0 18.22709886 8.14696086 18.22709886 18.22709887s-8.14696086 18.22709886-18.22709886 18.22709886c-10.08013802 0-18.22709886-8.14696086-18.22709887-18.22709886s8.14696086-18.22709886 18.22709887-18.22709887m0-32.03550709c-27.75490053 0-50.26260596 22.50770542-50.26260596 50.26260596 0 27.75490053 22.50770542 50.26260596 50.26260596 50.26260594s50.26260596-22.50770542 50.26260594-50.26260594c0-27.75490053-22.64578949-50.26260596-50.26260594-50.26260596z" fill="#4C466D" p-id="1288"></path><path d="M458.97571239 471.15731754c-8.69929718-11.59906291-18.64135111-20.2983601-28.58340503-25.95980747 5.93761554 4.97102697 11.737147 10.90864251 17.12242621 18.08901476 30.5165822 40.73480429 19.46985561 109.91492951 1.24275674 118.75231079-7.87079269 3.72827022-23.47429398-0.55233633-39.90629979-10.49439024 20.16027601 15.32733314 41.70139286 22.92195766 51.36727862 18.36518293 18.22709886-8.83738127 29.27382545-78.01750651-1.24275675-118.75231077z" fill="#C1E6EA" p-id="1289"></path><path d="M702.27986542 514.79188755c9.11354943-35.34952507-0.8285045-65.03760276-20.16027602-74.28923629-19.33177153-9.25163351-48.60559698 1.38084082-70.56096605 30.65466628-30.5165822 40.73480429-19.46985561 109.91492951-1.24275675 118.75231077s79.26026325-25.8217234 91.96399882-75.11774076z" fill="#D7F7FF" p-id="1290"></path><path d="M667.20650851 437.18863328c5.3852792 0 10.49439025 1.10467265 15.05116497 3.31401798 19.33177153 9.25163351 29.27382545 38.9397112 20.16027601 74.28923629-11.46097883 44.04882225-61.5855007 76.36049751-84.92171061 76.3604975-2.76168163 0-5.10911105-0.41425225-7.0422882-1.38084082-18.22709886-8.69929718-29.27382545-78.01750651 1.24275673-118.75231078 16.70817396-22.23153725 37.83503855-33.83060016 55.5098011-33.83060017m0-31.89742301c-28.85957319 0-59.23807131 17.39859437-81.19344039 46.67241982-28.1691528 37.55887038-29.13574137 87.95956043-21.26494869 119.71889936 5.79953147 23.47429398 16.70817396 39.7682157 31.75933894 47.08667206 6.2137837 3.0378498 13.2560719 4.55677472 20.85069644 4.55677472 40.73480429 0 101.4918005-44.73924267 115.99062913-100.38712784 12.56565149-48.88176514-2.62359757-94.58759638-37.14461815-111.15768625-8.97546534-4.41869063-18.64135111-6.48995186-28.99765728-6.48995187z" fill="#4C466D" p-id="1291"></path><path d="M611.69670741 471.15731754c8.69929718-11.59906291 18.64135111-20.2983601 28.58340505-25.95980747-5.93761554 4.97102697-11.737147 10.90864251-17.12242621 18.08901476-30.5165822 40.73480429-19.46985561 109.91492951-1.24275674 118.75231079 7.87079269 3.72827022 23.47429398-0.55233633 39.90629979-10.49439024-20.16027601 15.32733314-41.70139286 22.92195766-51.36727862 18.36518293-18.22709886-8.83738127-29.41190953-78.01750651 1.24275673-118.75231077z" fill="#C1E6EA" p-id="1292"></path><path d="M772.28849514 463.01035668c-49.1579333 197.46023769-173.1574392 276.72050094-236.95228522 276.72050094s-187.79435194-79.39834732-236.95228524-276.72050094c-5.10911105-20.2983601-7.87079269-39.35396347-8.97546536-57.30489416-1.65700898 26.23597565 0.96658859 55.50980109 8.97546536 87.95956043 49.1579333 197.46023769 173.1574392 276.72050094 236.95228524 276.72050093s187.79435194-79.39834732 236.95228522-276.72050093c8.14696086-32.44975935 10.77055842-61.7235848 8.97546536-87.95956043-1.10467265 17.9509307-4.00443838 37.00653407-8.97546536 57.30489416z" fill="#38C9F1" p-id="1293"></path><path d="M535.33620992 243.04241357c114.74787239 0 238.33312607 55.92405333 246.06583467 190.55603358 7.59462453-153.54949953-124.13758998-216.65392514-246.06583467-216.65392513-121.92824468 0-253.6604592 63.10442562-246.06583467 216.65392513 7.7327086-134.63198025 131.1798782-190.55603358 246.06583467-190.55603358z" fill="#49BCEA" p-id="1294"></path><path d="M231.13697659 792.75514522c-68.07545259 0-121.51399243-10.08013802-152.72099502-30.51658219-19.33177153-12.70373557-30.5165822-29.13574137-33.00209567-48.74368105-9.25163351-70.83713422 37.28270222-123.72333775 165.70089875-188.76094051 7.87079269-4.00443838 17.53667845-0.8285045 21.54111684 7.04228819 4.00443838 7.87079269 0.8285045 17.53667845-7.04228819 21.54111685-131.45604637 66.41844358-154.37800401 110.46726585-148.44038848 156.03501299 1.38084082 10.08013802 7.45654045 18.64135111 18.77943519 26.09789156 65.45185502 42.9441496 266.0880266 29.82616178 477.21858845-31.2070026C847.82048816 624.98298522 1002.75082851 507.47343118 993.91344725 439.53606268c-5.5233633-42.1156451-75.11774077-62.69017337-191.246454-56.33830558-8.69929718 0.55233633-16.29392172-6.2137837-16.84625805-15.05116496-0.41425225-8.83738127 6.2137837-16.43200579 15.05116498-16.84625805 175.36678453-9.52780169 219.00135453 40.45863612 224.6628019 84.09320612 12.70373557 97.34927803-169.84342124 220.52027943-443.66415645 299.64245862-131.73221452 38.11120672-255.59363635 57.7191464-350.73356904 57.71914639z" fill="#4C466D" p-id="1295"></path><path d="M890.4884696 202.9980297c-0.13808409 18.7794352-26.51214381 106.60091154-62.13783703 106.46282746 35.62569324 0.27616816 60.8950803 82.7123653 60.61891212 107.29133194 0.13808409-24.57896666 29.27382545-106.60091154 62.13783704-106.46282746-32.86401158-0.27616816-60.75699621-85.47404695-60.61891213-107.29133194z" fill="#FFFFFF" p-id="1296"></path><path d="M888.96954469 432.63185857s-0.13808409 0 0 0c-8.97546534 0-16.01775355-7.18037229-16.01775355-16.01775354v-0.13808409c0.13808409-24.30279849-25.13130297-90.99741024-44.73924267-91.13549433-8.83738127 0-15.87966947-7.18037229-15.87966945-16.01775354v-0.13808408c0-8.83738127 7.18037229-15.87966947 16.01775355-15.87966946h0.13808407c19.46985561 0 45.84391532-71.66563872 45.98199941-90.58315799 0-8.83738127 7.18037229-15.87966947 16.01775355-15.87966948h0.13808409c8.83738127 0 15.87966947 7.31845635 15.87966945 16.15583764 0 6.76612003 5.3852792 30.93083443 16.4320058 54.95746475 12.15139925 26.51214381 23.61237808 36.17802957 28.30723686 36.17802956 8.83738127 0 15.87966947 7.18037229 15.87966946 16.01775356v0.13808407c0 8.83738127-7.18037229 15.87966947-16.01775353 15.87966947h-0.1380841c-4.83294288 0-16.43200579 9.25163351-28.85957318 34.93527284-11.18481067 23.06004175-17.12242621 47.08667206-17.2605103 55.64788515 0 8.83738127-7.18037229 15.87966947-15.87966946 15.87966947z m-26.92639605-123.3090855c11.59906291 11.737147 20.85069643 28.58340503 27.75490054 45.56774716 1.10467265-2.62359757 2.3474294-5.24719513 3.59018614-7.87079268 7.7327086-15.87966947 16.15583763-28.44532095 24.9932189-37.28270222-8.69929718-9.11354943-16.84625804-21.95536909-24.44088257-38.52545896-1.24275675-2.62359757-2.3474294-5.24719513-3.45210205-8.00887679-7.18037229 17.39859437-16.70817396 34.3829365-28.44532096 46.12008349z" fill="#4C466D" p-id="1297"></path><path d="M217.88090469 524.73394147m-35.34952507 0a35.34952507 35.34952507 0 1 0 70.69905014 0 35.34952507 35.34952507 0 1 0-70.69905014 0Z" fill="#F7554A" p-id="1298"></path><path d="M217.88090469 489.38441639c19.46985561 0 35.34952507 15.87966947 35.34952507 35.34952508 0 19.46985561-15.87966947 35.34952507-35.34952507 35.34952507-19.46985561 0-35.34952507-15.87966947-35.34952507-35.34952507 0-19.46985561 15.74158539-35.34952507 35.34952507-35.34952508m0-32.03550709c-37.14461813 0-67.38503216 30.24041403-67.38503216 67.38503217s30.24041403 67.38503216 67.38503216 67.38503216 67.38503216-30.24041403 67.38503217-67.38503216c-0.13808409-37.14461813-30.24041403-67.38503216-67.38503217-67.38503217z" fill="#4C466D" p-id="1299"></path><path d="M107.41363885 286.26273132c-0.13808409 13.9464923-19.88410785 79.67451549-46.39625165 79.53643141 26.65022788 0.13808409 45.42966308 61.86166887 45.291579 80.08876774 0.13808409-18.36518295 21.817285-79.67451549 46.39625165-79.53643141-24.44088257 0-45.291579-63.65676193-45.291579-80.08876774z" fill="#FFFFFF" p-id="1300"></path><path d="M106.3089662 461.90568401c-8.97546534 0-16.01775355-7.18037229-16.01775356-16.01775354v-0.13808409c0.13808409-19.05560336-18.91751926-63.9329301-29.41190953-64.07101418-8.83738127 0-15.87966947-7.18037229-15.87966948-16.01775353v-0.1380841c0-8.83738127 7.18037229-16.15583763 16.15583763-15.87966947 10.35630617 0 30.10232993-48.19134474 30.37849813-63.65676193 0-8.83738127 7.18037229-15.87966947 16.01775354-15.87966947h0.13808409c8.42312903 0 15.32733314 6.62803595 15.87966945 15.05116497v0.96658858c-0.13808409 14.49882864 18.7794352 61.30933253 29.54999361 64.07101419 0.41425225 0 0.8285045 0 1.24275675 0.13808407 8.28504494 0.69042042 14.63691274 7.59462453 14.49882864 16.01775355 0 8.83738127-7.31845635 15.87966947-16.15583762 15.87966947h-0.13808409c-10.21822208 1.79509307-30.24041403 46.67241982-30.37849811 63.65676194 0.13808409 8.97546534-7.04228819 16.01775355-15.87966945 16.01775354z m-14.63691273-96.10652128c6.07569962 6.90420412 11.18481067 15.32733314 15.32733313 24.30279849 4.97102697-9.80396985 10.21822208-17.9509307 15.74158539-24.16471439-6.07569962-7.04228819-11.18481067-15.87966947-15.46541723-24.9932189-4.83294288 10.21822208-9.94205392 18.50326702-15.60350129 24.8551348z" fill="#4C466D" p-id="1301"></path><path d="M73.4449546 628.15891911c0.8285045 19.33177153-22.09345317 111.57193851-58.82381906 113.09086341 36.86844997-1.51892491 66.97077991 82.43619714 68.07545258 107.84366829-1.10467265-25.40747114 24.85513482-111.71002258 58.82381906-113.09086341-33.96868425 1.38084082-67.108864-85.33596286-68.07545258-107.84366829z" fill="#FFFFFF" p-id="1302"></path><path d="M82.69658812 864.97312028c-8.5612131 0-15.6035013-6.76612003-16.01775355-15.32733315-0.41425225-9.3897176-7.18037229-34.52102059-18.91751927-57.30489415-13.2560719-25.95980747-25.54555523-35.07335691-32.31167527-35.07335692h-0.27616817c-9.11354943 0.41425225-16.29392172-6.48995186-16.70817394-15.32733312v-0.69042042c0-8.5612131 6.76612003-15.6035013 15.32733313-16.01775354 20.2983601-0.8285045 44.32499042-76.63666569 43.49648593-96.38268945-0.41425225-8.83738127 6.48995186-16.29392172 15.32733312-16.70817396 8.69929718-0.41425225 16.29392172 6.48995186 16.70817396 15.32733314 0.27616816 8.00887677 7.59462453 32.58784341 19.88410785 56.20022149 13.9464923 26.78831197 26.37405971 36.31611363 31.48317077 36.31611365h0.13808408c8.83738127-0.41425225 16.29392172 6.48995186 16.70817398 15.32733313v0.69042042c0 8.5612131-6.76612003 15.6035013-15.32733316 16.01775354-18.08901478 0.69042042-44.60115858 70.97521831-43.49648592 96.38268944v0.69042043c0 8.5612131-6.76612003 15.6035013-15.32733313 16.01775354-0.27616816-0.13808409-0.55233633-0.13808409-0.69042041-0.13808407z m-34.24485242-125.6565149c9.94205392 8.83738127 19.19368743 21.67920092 27.75490055 38.38737487 1.38084082 2.76168163 2.89976573 5.66144737 4.28060656 8.69929719 6.90420412-18.36518295 16.15583763-36.45419773 27.8929846-49.1579333-9.52780169-8.97546534-18.64135111-21.817285-27.47873236-38.80162714-1.65700898-3.1759339-3.1759339-6.35186779-4.83294289-9.66588575-6.62803595 18.50326702-15.74158539 37.28270222-27.61681646 50.53877413z" fill="#4C466D" p-id="1303"></path><path d="M571.65232355 675.65984342c-5.5233633 0-10.90864251-2.89976573-13.80840823-8.00887675-4.00443838-6.90420412-11.04672658-11.04672658-18.77943518-11.04672661s-14.7749968 4.14252247-18.7794352 11.04672661c-4.41869063 7.59462453-14.22266047 10.21822208-21.817285 5.79953143s-10.21822208-14.22266047-5.79953147-21.817285c9.66588576-16.57008987 27.47873238-26.92639605 46.53433574-26.92639605 19.05560336 0 36.86844997 10.35630617 46.53433574 26.92639605 4.41869063 7.59462453 1.79509307 17.39859437-5.79953145 21.817285-2.76168163 1.51892491-5.5233633 2.20934532-8.28504495 2.20934532zM375.15867443 384.99285017c-2.76168163 0-5.5233633-0.69042042-8.00887677-2.20934531-7.59462453-4.41869063-10.21822208-14.22266047-5.79953145-21.81728501 9.3897176-16.15583763 26.78831197-26.23597565 45.29157898-26.23597564 8.83738127 0 16.01775355 7.18037229 16.01775356 16.01775356 0 8.83738127-7.18037229 16.01775355-16.01775356 16.01775355-7.31845635 0-13.80840823 3.86635431-17.67476252 10.35630617-2.89976573 4.97102697-8.28504494 7.87079269-13.80840824 7.87079268zM695.51374539 384.99285017c-5.5233633 0-10.90864251-2.89976573-13.80840824-8.00887677-3.72827022-6.48995186-10.35630617-10.35630617-17.67476254-10.35630617-8.83738127 0-16.01775355-7.18037229-16.01775354-16.01775354 0-8.83738127 7.18037229-16.01775355 16.01775354-16.01775355 18.50326702 0 35.9018614 10.08013802 45.29157901 26.23597563 4.41869063 7.59462453 1.79509307 17.39859437-5.79953147 21.817285-2.48551348 1.65700898-5.24719513 2.3474294-8.00887676 2.3474294z" fill="#4C466D" p-id="1304"></path><path d="M665.54949953 476.95684899c2.76168163-10.90864251-0.27616816-20.16027601-6.21378371-22.92195767-5.93761554-2.89976573-15.05116498 0.41425225-21.817285 9.52780168-9.3897176 12.56565149-6.07569962 33.96868425-0.41425225 36.7303659 5.66144737 2.48551348 24.57896666-8.14696086 28.44532096-23.33620991z" fill="#FFFFFF" p-id="1305"></path><path d="M407.05609745 472.1239061c-0.27616816-11.32289475-5.79953147-19.19368743-12.42756741-20.29836008-6.48995186-1.10467265-14.36074457 4.55677472-18.36518295 15.18924904-5.5233633 14.7749968 3.72827022 34.3829365 9.80396985 35.34952508 6.35186779 0.96658859 21.54111683-14.63691274 20.98878051-30.24041404z" fill="#FFFFFF" p-id="1306"></path></svg>